<?xml version="1.0" encoding="utf-8"?>
<!-- Generator: Adobe Illustrator 16.0.0, SVG Export Plug-In . SVG Version: 6.00 Build 0)  -->
<!DOCTYPE svg PUBLIC "-//W3C//DTD SVG 1.1//EN" "http://www.w3.org/Graphics/SVG/1.1/DTD/svg11.dtd">
<svg version="1.1" id="Layer_1" xmlns="http://www.w3.org/2000/svg" xmlns:xlink="http://www.w3.org/1999/xlink" x="0px" y="0px"
	 width="208.406px" height="326.645px" viewBox="0 0 208.406 326.645" enable-background="new 0 0 208.406 326.645"
	 xml:space="preserve">
<rect y="0" fill="#FFFFFF" width="208.406" height="326.645"/>
<polygon stroke="#000000" stroke-width="0.5" stroke-miterlimit="10" points="7.311,319.07 7.484,319.07 7.484,7.733 200.922,7.733 
	200.922,318.902 7.311,318.902 7.311,319.07 7.484,319.07 7.311,319.07 7.311,319.242 201.26,319.242 201.26,7.396 7.142,7.396 
	7.142,319.242 7.311,319.242 "/>
<polygon fill="#1E1E1E" stroke="#000000" stroke-width="0.75" stroke-miterlimit="10" points="0.522,326.132 1.04,326.132 
	1.04,1.026 207.366,1.026 207.366,325.615 0.522,325.615 0.522,326.132 1.04,326.132 0.522,326.132 0.522,326.644 208.406,326.644 
	208.406,0 0,0 0,326.644 0.522,326.644 "/>
<g>
	<path d="M42.848,47.598h6.377v11.496H47.34L46.616,57.4c-1.161,1.384-2.102,2.009-3.927,2.009c-3.078,0-5.211-2.195-5.211-5.81
		V41.914c0-3.208,1.881-5.812,5.717-5.812c3.888,0,5.839,2.828,5.839,6.217v1.447h-3.707c0-3.395-0.687-4.271-2.228-4.271
		c-0.943,0-1.729,0.562-1.729,2.479V53.63c0,1.44,0.472,2.387,1.825,2.387c1.566,0,2.132-0.884,2.132-3.144v-2.2h-2.479V47.598z"/>
	<rect x="52.935" y="36.416" width="3.89" height="22.679"/>
	<polygon points="68.292,36.416 72.128,36.416 67.386,59.094 63.488,59.094 58.743,36.416 62.574,36.416 65.402,52.146 
		65.467,52.146 	"/>
	<polygon points="73.512,59.094 73.512,36.416 83.938,36.416 83.938,39.811 77.403,39.811 77.403,45.648 82.433,45.648 
		82.433,49.039 77.403,49.039 77.403,55.703 84.379,55.703 84.379,59.094 	"/>
	<polygon points="92.865,59.094 92.865,36.416 103.732,36.416 103.732,39.811 96.76,39.811 96.76,45.648 101.972,45.648 
		101.972,49.039 96.76,49.039 96.76,59.094 	"/>
	<path d="M109.917,59.094h-3.894V36.416h5.465c4.369,0,6.6,1.854,6.6,6.688c0,3.646-1.41,5.12-2.736,5.719l3.303,10.271h-3.961
		l-2.756-9.391c-0.508,0.057-1.326,0.097-2.021,0.097V59.094z M109.917,46.59h1.386c2.104,0,2.893-0.782,2.893-3.484
		s-0.786-3.489-2.893-3.489h-1.386V46.59z"/>
	<polygon points="120.941,59.094 120.941,36.416 131.375,36.416 131.375,39.811 124.843,39.811 124.843,45.648 129.866,45.648 
		129.866,49.039 124.843,49.039 124.843,55.703 131.82,55.703 131.82,59.094 	"/>
	<polygon points="134.109,59.094 134.109,36.416 144.543,36.416 144.543,39.811 138.005,39.811 138.005,45.648 143.033,45.648 
		143.033,49.039 138.005,49.039 138.005,55.703 144.979,55.703 144.979,59.094 	"/>
	<polygon points="147.084,59.094 147.084,36.416 150.98,36.416 150.98,55.703 157.102,55.703 157.102,59.094 	"/>
	<polygon points="165.746,59.094 161.85,59.094 161.85,49.672 157.143,36.416 161.098,36.416 163.83,45.057 163.893,45.057 
		166.5,36.416 170.456,36.416 165.746,49.672 	"/>
	<rect x="167.221" y="55.39" width="3.707" height="3.704"/>
	<polygon points="46.475,90.512 46.475,67.828 50.377,67.828 50.377,87.118 56.497,87.118 56.497,90.512 	"/>
	<rect x="58.634" y="67.828" width="3.892" height="22.685"/>
	<polygon points="73.996,67.828 77.824,67.828 73.085,90.512 69.189,90.512 64.448,67.828 68.275,67.828 71.109,83.563 
		71.168,83.563 	"/>
	<polygon points="79.216,90.512 79.216,67.828 89.641,67.828 89.641,71.222 83.107,71.222 83.107,77.065 88.134,77.065 
		88.134,80.459 83.107,80.459 83.107,87.118 90.08,87.118 90.08,90.512 	"/>
	<polygon points="98.567,90.512 98.567,67.828 109.43,67.828 109.43,71.222 102.459,71.222 102.459,77.065 107.67,77.065 
		107.67,80.459 102.459,80.459 102.459,90.512 	"/>
	<path d="M111.73,67.828h3.891v17.121c0,1.665,0.665,2.481,2.068,2.481c1.416,0,2.076-0.816,2.076-2.481V67.828h3.9v16.971
		c0,3.894-2.27,6.023-5.979,6.023c-3.705,0-5.959-2.132-5.959-6.023V67.828H111.73z"/>
	<polygon points="126.456,90.512 126.456,67.828 130.355,67.828 130.355,87.118 136.482,87.118 136.482,90.512 	"/>
	<polygon points="137.895,90.512 137.895,67.828 141.792,67.828 141.792,87.118 147.915,87.118 147.915,90.512 	"/>
	<polygon points="156.552,90.512 152.657,90.512 152.657,81.084 147.943,67.828 151.902,67.828 154.641,76.468 154.705,76.468 
		157.311,67.828 161.268,67.828 156.552,81.084 	"/>
	<rect x="158.029" y="86.807" width="3.713" height="3.705"/>
</g>
<g>
	<path fill="#009FE3" d="M161.948,178.08c-0.206-0.212-0.47-0.161-0.714-0.166c-3.088-0.104-6.178-0.138-9.258-0.313
		c-4.338-0.254-8.672-0.415-13.004-0.621c-2.285-0.109-4.482,0.16-6.699,0.579c-3.789,0.705-7.604,0.927-11.463,0.559
		c-3.061-0.299-6.095-0.914-9.191-0.937c-1.467-0.012-2.914,0.068-4.352,0.328c-0.416,0.081-0.479-0.04-0.479-0.394
		c-0.005-0.878-0.027-1.755-0.045-2.631c-0.059-3.292-0.061-6.581-0.199-9.869c-0.083-2.075-0.104-4.155-0.297-6.229
		c-0.161-1.598-0.089-3.205-0.105-4.812c-0.041-2.384-0.056-4.771-0.102-7.159c-0.045-2.574,0.504-5.086,0.814-7.621
		c0.271-2.188,0.662-4.367,1-6.544c0.336-0.083,0.414,0.209,0.556,0.393c1.678,2.211,3.088,4.575,4.104,7.165
		c0.073,0.2,0.094,0.484,0.363,0.524c0.281,0.043,0.348-0.232,0.471-0.415c1.271-1.896,2.606-3.745,4.055-5.509
		c3.593-4.361,7.734-8.017,13.091-10.1c0.118-0.042,0.233-0.083,0.356-0.108c3.088-1.08,6.162-2.166,9.381-2.8
		c2.791-0.552,5.604-0.891,8.453-0.813c4.713,0.126,9.146,1.217,13.106,3.879c2.367,1.581,4.287,3.613,5.948,5.91
		c0.167,0.221,0.381,0.405,0.492,0.662c1.797,2.521,3.221,5.246,4.461,8.085c0.027,0.078,0.058,0.152,0.082,0.229
		c1.595,4.161,2.119,8.503,2.136,12.913c0.011,3.913-0.683,7.732-1.647,11.505c-0.035,0.149-0.063,0.292-0.074,0.444
		c-0.691,3.294-1.86,6.441-3.215,9.52c-0.535,1.216-1.16,2.39-1.725,3.588c-0.354,0.747-0.794,1.109-1.607,0.985
		c-0.178-0.029-0.354,0.003-0.531,0.003c-0.896,0.008-1.799-0.012-2.698,0.012C162.913,178.278,162.377,178.477,161.948,178.08z"/>
	<path fill="#E30613" d="M103.304,177.812c-0.914-0.085-3.278-0.005-3.538,0.126c-1.18,0.021-4.74,0.683-5.375,0.769
		c-0.054,0.125-0.126,0.217-0.246,0.271c-0.319,0.111-0.662,0.086-0.992,0.094c-0.456,0-0.917-0.049-1.37,0.1
		c-0.437,0.075-0.874,0.075-1.313,0c-0.742-0.191-1.49-0.065-2.246-0.1c-0.18,0-0.359-0.021-0.536-0.066
		c-2.641-0.352-5.263-0.828-7.895-1.229c-0.676-0.097-1.367-0.086-2.04-0.04c-3.93,0.292-7.884,0.181-11.816,0.573
		c-0.951,0.091-1.906,0.049-2.86,0.078c-2.002,0.074-4.177,0.358-6.192,0.148c-0.311-0.115-0.273-0.367-0.386-0.647
		c-1.469-3.736-2.71-7.547-3.576-11.477c-0.584-2.674-0.67-5.407-0.868-8.13c-0.172-2.428-0.147-4.854-0.233-7.275
		c0.166-1.748,0.45-3.458,0.938-5.157c0.804-2.793,2.016-5.377,3.67-7.761c0.266-0.43,0.694-0.726,0.976-1.152
		c0.223-0.337,0.558-0.538,0.896-0.742c0.651-0.292,1.123-0.824,1.686-1.24c0.762-0.562,1.582-1.052,2.34-1.627
		c0.067-0.052,0.129-0.095,0.201-0.129c2.172-1.241,4.469-2.17,6.916-2.725c2.078-0.478,4.155-0.771,6.318-0.653
		c1.869,0.095,3.754,0.143,5.627,0.246c2.997,0.169,5.884,0.94,8.707,1.954c0.656,0.237,1.308,0.507,1.979,0.725
		c0.71,0.207,1.372,0.512,2.026,0.837c1.252,0.67,2.552,1.269,3.812,1.927c0.584,0.388,1.18,0.76,1.788,1.112
		c0.772,0.496,1.611,0.888,2.351,1.438c0.057,0.033,0.113,0.068,0.169,0.105c0.301,0.244,2.303-0.868,2.011-1.174
		c-1.008-1.029-1.92-2.16-3.117-2.988c-2.086-1.748-4.275-3.341-6.477-4.922c-1.482-1.06-3.131-1.796-4.767-2.567
		c-4.52-2.146-9.35-3.186-14.258-3.868c-5.149-0.728-10.251-0.375-15.248,1.157c-2.876,0.88-5.575,2.127-8.034,3.877
		c-0.203,0.146-0.428,0.266-0.584,0.467c-1.051,0.974-2.18,1.854-3.134,2.925c-1.077,1.198-2.136,2.407-2.798,3.902
		c-0.035,0.104-0.075,0.207-0.137,0.31c-0.15,0.177-0.319,0.341-0.491,0.495c-0.708,1.272-1.192,2.647-1.63,4.034
		c-0.742,2.323-0.812,4.722-0.893,7.122c-0.142,4.237,0.298,8.406,1.346,12.511c0.217,0.849,0.459,1.694,0.805,2.498
		c0.107,0.252,0.188,0.508,0.252,0.771c0.174,0.53,0.311,1.072,0.627,1.547c0.035,0.062,0.062,0.127,0.086,0.192
		c0.209,0.729,0.525,1.407,0.93,2.043c0.727,1.146,1.26,2.395,1.84,3.61c0.085,0.186,0.189,0.364,0.308,0.53
		c0.032,0.057,0.067,0.117,0.1,0.18c0.396,0.682,0.63,1.456,1.179,2.046c0.574,0.722,0.934,1.584,1.502,2.309
		c0.635,1.012,1.257,2.022,1.954,2.999c0.126,0.184,0.665,0.396,0.383,0.662c-0.257,0.132-0.82,0.072-1.099,0.081
		c-0.445,0.011-0.893-0.04-1.335,0.071c-0.129,0.02-0.249,0.02-0.373-0.008c-0.635-0.101-1.265-0.111-1.89,0.06
		c-1.348,0.121-2.705,0.034-4.059,0.054c-0.627-0.066-1.257,0.055-1.887-0.086c-0.874-0.874-1.429-1.965-1.933-3.085
		c-1.475-3.303-2.561-6.735-3.547-10.216c-0.418-1.493-0.67-3.029-1.016-4.541c-0.347-1.396-0.536-2.82-0.622-4.264
		c0-0.283,0.005-0.57-0.092-0.842c-0.045-0.203-0.056-0.41-0.056-0.611c-0.005-0.252-0.005-0.501-0.005-0.746
		c0-0.382,0.018-0.76-0.107-1.126c-0.072-0.45-0.041-0.901-0.051-1.353c0.005-1.682-0.006-3.369,0-5.057
		c0.01-0.39-0.009-0.773,0.031-1.163c0.014-0.075,0.029-0.154,0.054-0.235c0.15-0.441,0.043-0.911,0.118-1.364
		c0.016-0.068,0.027-0.146,0.054-0.22c0.104-0.372,0.04-0.763,0.056-1.143c0.445-3.39,1.341-6.656,2.871-9.73
		c1.499-3.034,3.539-5.658,6.005-7.976c0.103-0.104,0.226-0.184,0.37-0.249c1.402-1.091,2.758-2.252,4.273-3.201
		c4.637-2.907,9.639-4.798,15.1-5.426c0.354-0.002,0.719,0.023,1.062-0.103c0.332-0.065,0.659-0.045,0.986-0.058
		c0.378-0.002,0.748,0.038,1.112-0.091c0.258-0.057,0.518-0.055,0.777-0.057c0.67-0.034,1.338,0.083,1.994-0.121
		c1.694-0.066,3.389-0.066,5.086,0c0.472,0.158,0.957,0.11,1.439,0.121c0.303,0.005,0.601-0.011,0.9,0.052
		c0.319,0.116,0.651,0.1,0.984,0.1c1.787,0.229,3.567,0.521,5.32,0.948c2.82,0.67,5.557,1.604,8.189,2.828
		c0.072,0.021,0.143,0.046,0.215,0.077c1.664,0.797,3.217,1.799,4.841,2.684c1.759,0.949,3.278,2.238,4.82,3.479
		c1.198,0.969,2.247,2.09,3.333,3.169c0.209,0.209,0.455,0.404,0.492,0.734c-0.027,0.309,0.074,0.625-0.06,0.925
		c-0.166,1.642-0.384,3.284-0.324,4.939c-0.14,0.252,0.009,0.544-0.118,0.788c-0.099,0.192-0.062,0.378-0.037,0.572
		c-0.16,0.402,0.047,0.849-0.129,1.247c-0.604,5.022-0.367,10.079-0.3,15.116c0.017,1.619,0.069,3.249,0.115,4.879
		c0.013,0.214,0.054,1.297,0.166,1.635c0.005,0.493,0.019,0.983,0.024,1.476c0.174,0.873-0.053,1.768,0.123,2.644
		c0.045,3.455,0.096,6.914,0.139,10.369c0.012,0.928-0.029,1.856,0.017,2.782c0.021,0.487-0.108,0.532-0.567,0.492
		C105.041,178.052,103.609,177.968,103.304,177.812z"/>
	<path fill="#5C2483" d="M45.212,178.903c1.388-0.026,2.793-0.054,4.185-0.08c0.611-0.052,1.219-0.077,1.825,0.014
		c0.091,0,0.188,0,0.287,0c0.394-0.111,1.155-0.02,1.643-0.006c0.464,0.046,1.124-0.309,1.501,0.832
		c1.169,1.618,2.499,3.117,3.596,4.798c0.123,0.172,0.262,0.341,0.355,0.544c0.561,0.926,1.207,1.791,1.871,2.639
		c0.158,0.172,0.33,0.333,0.47,0.524c0.137,0.229,0.319,0.421,0.472,0.637c0.037,0.057,0.064,0.122,0.094,0.186
		c0.078,0.177,0.177,0.341,0.456,0.507c-0.266-0.604-0.472-1.129-0.866-1.562c-0.062-0.09-0.107-0.195-0.142-0.299
		c-1.212-2.437-2.375-4.896-3.504-7.373c-0.209-0.46-0.909-1.637-0.278-1.511c0.453-0.172,0.948-0.051,1.407-0.186
		c3.182-0.089,6.353-0.358,9.54-0.229c3.094,0.12,6.171,0.062,9.254,0.178c2.056,0.074,4.109,0.065,6.168,0.141
		c1.415,0.048,2.844,0.179,4.272,0.197c0.132,0.021,0.263,0.04,0.395,0.055c0.767,0.085,1.533-0.015,2.3,0.054
		c0.424,0,0.853,0,1.275,0.005c0.448-0.063,0.896,0.026,1.336-0.051c0.356-0.021,0.702-0.04,1.048-0.062
		c0.266,0.1,0.552,0.055,0.82,0.14c0.107-0.014,0.209-0.02,0.311-0.026c0.472-0.091,5.579-0.059,6.085-0.237
		c0.891,0.074,1.777,0.025,2.67-0.02c0.349-0.18,0.743,0.025,1.096-0.132c0.918,0.126,1.359,0.739,1.584,2.148
		c0.044,0.29,0.127,0.57,0.187,0.854c0.166,0.301,0.421,13.583,0.372,15.261c-0.025,0.901,0.086,1.806-0.066,2.705
		c-0.08,1.442-0.191,11.064-0.229,12.646c-0.038,1.163-0.238,10.188-0.357,10.449c-0.033,0.39-0.201,2.146-0.201,2.146
		s-0.293,9.11-0.375,13.404c-0.021,0.942-0.024,1.654-0.021,1.986c-0.257,0.021-0.541-0.264-1.688-1.238
		c-1-1.02-2.145-1.885-3.109-2.934c-0.748-0.813-1.659-1.452-2.421-2.252c-1.509-1.36-3.08-2.655-4.627-3.97
		c-2.243-1.9-4.477-3.805-6.704-5.719c-2.798-2.406-5.595-4.816-8.444-7.165c-3.042-2.504-6.187-4.896-9.162-7.479
		c-2.235-1.938-4.406-3.947-6.624-5.913c-2.46-2.188-4.927-4.363-7.243-6.703c-2.206-2.232-4.119-4.73-5.993-7.252
		c-0.292-0.379-0.534-0.797-0.928-1.08c-0.057-0.052-0.103-0.103-0.145-0.158c-0.392-0.635-0.848-1.217-1.282-1.827
		c-0.099-0.166-0.203-0.33-0.315-0.488c-0.095-0.166-0.207-0.324-0.312-0.481c-0.086-0.14-0.152-0.286-0.206-0.438
		c-0.1-0.289-0.292-0.516-0.496-0.73c-0.96-1.484-1.946-2.948-2.839-4.473c-0.244-0.412-0.412-0.804,0.271-0.938
		C44.252,178.916,44.734,178.976,45.212,178.903z"/>
	<path fill="#FFFFFF" d="M87.817,178.85c-0.252,0.252-0.571,0.151-0.86,0.151c-2.514-0.04-5.021-0.1-7.529-0.151
		c-5.147-0.104-10.291-0.259-15.443-0.259c-1.834,0-3.654,0.229-5.487,0.141c-0.346,0.104-0.7,0.046-1.051,0.04
		c-0.734-0.008-0.595,0.178-0.41,0.642c0.694,1.668,1.52,3.277,2.278,4.919c0.198,0.355,0.399,0.705,0.536,1.091
		c0.112,0.279,0.26,0.545,0.381,0.823c0.086,0.189,0.26,0.441,0,0.595c-0.22,0.118-0.352-0.134-0.467-0.28
		c-0.478-0.581-0.885-1.218-1.318-1.833c-0.116-0.158-0.215-0.342-0.373-0.471c-1.268-1.724-2.573-3.418-3.905-5.088
		c-0.097-0.12-0.164-0.252-0.218-0.392c-0.905-1.229-1.686-2.542-2.541-3.807c-0.721-1.227-1.544-2.387-2.157-3.677
		c-1.15-2.229-2.354-4.438-3.402-6.712c-1.203-2.607-1.962-5.369-2.493-8.188c-0.415-2.28-0.632-4.572-0.678-6.896
		c-0.054-2.367-0.035-4.727,0.313-7.062c0.386-2.572,1.172-5.034,2.608-7.243c0.013-0.091,0.026-0.172,0.04-0.255
		c1.139-1.871,2.466-3.581,4.069-5.082c0.804-0.751,1.681-1.413,2.546-2.083c4.364-3.14,9.305-4.688,14.58-5.266
		c5.062-0.542,10.025,0.155,14.939,1.292c4.45,1.02,8.669,2.645,12.521,5.074c3.469,2.188,6.683,4.716,9.508,7.712
		c0.703,0.743,0.421,0.571-0.418,1.215c-0.437,0.198-0.753,0.608-1.241,0.304c-0.854-0.43-1.622-1.002-2.466-1.458
		c-0.617-0.367-1.236-0.748-1.86-1.106c-0.054-0.06-0.107-0.115-0.167-0.163c-4.369-2.389-8.944-4.229-13.874-5.028
		c-2.625-0.422-5.289-0.438-7.948-0.539c-2.941-0.111-5.748,0.364-8.524,1.247c-2.378,0.759-4.587,1.874-6.613,3.349
		c-0.051,0.049-0.115,0.094-0.172,0.137c-0.442,0.252-0.893,0.504-1.185,0.949c-0.311,0.255-0.576,0.572-0.976,0.719
		c-0.439,0.189-0.767,0.512-1.032,0.902c-0.263,0.261-0.531,0.516-0.774,0.794c-0.478,0.553-0.872,1.169-1.236,1.796
		c-0.062,0.132-0.131,0.255-0.228,0.364c-0.641,1.115-1.241,2.261-1.67,3.479c-0.579,1.922-1.236,3.819-1.475,5.83
		c-0.172,1.524-0.115,3.048-0.1,4.578c0.03,3.584,0.307,7.163,0.743,10.721c0.252,2.152,0.866,4.228,1.474,6.288
		c0.684,2.312,1.473,4.59,2.365,6.828c0.053,0.143,0.117,0.272,0.211,0.395c0.094,0.089,0.132,0.298,0.244,0.354
		c3.309-0.069,6.664-0.418,9.959-0.596c1.63-0.083,3.262-0.114,4.89-0.189c1.999-0.086,3.991-0.146,5.983-0.289
		c1.983-0.143,3.87,0.384,5.793,0.656c1.235,0.18,2.469,0.361,3.704,0.542C87.426,178.691,87.678,178.598,87.817,178.85z"/>
	<path fill="#FFFFFF" d="M123.354,138.973c-0.158,0.048-0.315,0.096-0.582,0.174c0.412-0.951,1.086-1.596,1.662-2.289
		c1.342-1.622,2.894-3.043,4.531-4.358c0.588-0.461,1.107-1,1.657-1.504c4.403-3.229,9.358-4.589,14.794-4.354
		c2.416,0.106,4.682,0.802,6.925,1.627c0.304,0.111,0.608,0.221,0.919,0.326c0.881,0.579,1.891,0.932,2.737,1.571
		c0.142,0.108,0.435,0.16,0.338,0.42c-0.071,0.196-0.312,0.115-0.478,0.109c-3.854-0.021-7.678,0.402-11.5,0.777
		c-2.729,0.271-5.355,1.077-8.004,1.781c-1.789,0.302-3.471,0.966-5.168,1.565c-2.694,0.954-5.086,2.515-7.547,3.902
		C123.529,138.782,123.445,138.889,123.354,138.973z"/>
	<path fill="#FFED00" d="M106.936,240.615c-0.604-0.184-0.604-1.03-0.604-1.944c0-0.916,1.4-10.107,1.521-11.384
		c0.127-1.279,1.1-6.329,1.215-7.67c0.129-1.341,0-12.604,0-14.124c0-1.521-0.485-10.044-0.424-11.383
		c0.062-1.341-0.018-7.979,0.479-10.349c0.493-2.368,0.559-3.896,1.281-4.021c0.732-0.115,14.068-0.362,17.175-0.425
		c3.096-0.057,10.835-0.484,12.233-0.484c1.396,0,12.66-0.79,14.608-0.914c1.946-0.123,13.519,0,13.519,0
		s-3.268,6.957-11.119,14.262c-7.855,7.303-11.709,11.859-17.926,16.938c-6.205,5.083-15.653,15.115-19.84,19.143
		C111.788,235.244,106.936,240.615,106.936,240.615z"/>
</g>
<g>
	<g>
		<path fill="#E30613" d="M46.919,259.279c-0.914,0.911-2.294,1.355-4.144,1.355h-2.14v9.328h-4.323v-20.28h6.773
			c1.828,0,3.158,0.418,3.962,1.277c0.807,0.837,1.228,2.241,1.228,4.186C48.275,256.992,47.836,258.37,46.919,259.279z
			 M43.373,252.735c-0.387-0.521-0.989-0.764-1.797-0.764h-0.94v6.371h0.94c0.808,0,1.41-0.247,1.797-0.708
			c0.391-0.498,0.573-1.308,0.573-2.489C43.946,254.062,43.764,253.253,43.373,252.735z"/>
		<path fill="#E30613" d="M63.327,269.964c-1.638,0-2.836-0.346-3.533-1.011c-0.71-0.662-1.048-1.77-1.048-3.269v-3.521
			c0-0.546-0.158-0.914-0.442-1.186c-0.284-0.269-0.705-0.393-1.255-0.393h-1.795v9.377h-4.327v-20.28h6.6
			c1.791,0,3.123,0.395,3.954,1.151c0.839,0.788,1.252,1.995,1.252,3.596c0,1.235-0.258,2.22-0.78,2.956
			c-0.493,0.737-1.252,1.281-2.292,1.553c1.04,0.124,1.82,0.464,2.396,1.083c0.571,0.613,0.857,1.35,0.857,2.235v4.211
			c0,0.47,0.105,0.788,0.293,0.963c0.18,0.195,0.544,0.27,1.115,0.27v2.265H63.327L63.327,269.964z M57.939,252.583
			c-0.287-0.441-0.783-0.662-1.539-0.662h-1.146v6.254h1.254c0.648,0,1.145-0.226,1.432-0.665c0.284-0.467,0.445-1.254,0.445-2.389
			C58.385,253.865,58.224,253.031,57.939,252.583z"/>
		<path fill="#E30613" d="M71.798,269.964c-1.819,0-3.182-0.418-4.12-1.277c-0.911-0.859-1.377-2.163-1.377-3.916v-9.864
			c0-2.074,0.391-3.475,1.197-4.169c0.805-0.713,2.295-1.054,4.455-1.054h4.246v2.289h-3.098c-0.938,0-1.588,0.194-1.952,0.564
			c-0.338,0.396-0.522,1.083-0.522,2.068v1.748h5.128v2.729h-5.128v5.225c0,1.203,0.203,2.063,0.651,2.582
			c0.439,0.54,1.171,0.787,2.241,0.787h3.229v2.286L71.798,269.964L71.798,269.964z"/>
		<path fill="#E30613" d="M87.951,268.83c-1.013,0.96-2.498,1.45-4.479,1.45c-1.775,0-3.152-0.438-4.145-1.301
			c-1.016-0.859-1.52-2.12-1.52-3.738h4.047c0,0.664,0.132,1.182,0.419,1.549c0.284,0.37,0.726,0.539,1.3,0.539
			c0.579,0,1.043-0.169,1.354-0.488c0.338-0.317,0.496-0.764,0.496-1.355c0-0.59-0.129-1.131-0.364-1.62
			c-0.261-0.471-0.649-0.966-1.146-1.482c-0.283-0.271-0.914-0.81-1.902-1.647c-1.017-0.86-1.593-1.354-1.772-1.499
			c-0.782-0.716-1.356-1.478-1.724-2.24c-0.359-0.762-0.549-1.604-0.549-2.484c0-1.523,0.522-2.762,1.547-3.673
			c1.037-0.907,2.366-1.378,4.01-1.378c1.638,0,2.94,0.445,3.879,1.33c0.94,0.887,1.437,2.12,1.437,3.672h-4.063
			c0-0.664-0.132-1.186-0.365-1.526c-0.257-0.35-0.653-0.521-1.174-0.521c-0.439,0-0.785,0.126-1.016,0.396
			c-0.233,0.272-0.341,0.67-0.341,1.135c0,0.366,0.107,0.736,0.313,1.104c0.23,0.342,0.654,0.788,1.279,1.332
			c0.077,0.073,0.651,0.514,1.667,1.354c1.043,0.827,1.799,1.474,2.212,1.913c0.782,0.768,1.329,1.53,1.643,2.312
			c0.338,0.768,0.502,1.629,0.502,2.586C89.496,266.441,88.968,267.876,87.951,268.83z"/>
		<path fill="#E30613" d="M91.882,269.964v-20.28h4.329v20.28H91.882z"/>
		<path fill="#E30613" d="M110.564,267.753c-1.065,1.473-2.896,2.211-5.551,2.211h-5.036v-20.28h4.306
			c3.123,0,5.214,0.71,6.278,2.166c1.047,1.426,1.568,4.062,1.568,7.876C112.134,263.616,111.611,266.3,110.564,267.753z
			 M107.1,253.62c-0.365-1.155-1.043-1.725-2.029-1.725h-0.757v15.855h0.757c0.986,0,1.664-0.353,2.029-1.015
			c0.396-0.685,0.57-2.95,0.57-6.821C107.67,256.866,107.494,254.752,107.1,253.62z"/>
		<path fill="#E30613" d="M120.412,269.964c-1.826,0-3.18-0.418-4.115-1.277c-0.912-0.859-1.383-2.163-1.383-3.916v-9.864
			c0-2.074,0.386-3.475,1.195-4.169c0.812-0.713,2.297-1.054,4.459-1.054h4.25v2.289h-3.104c-0.938,0-1.588,0.194-1.96,0.564
			c-0.333,0.396-0.516,1.083-0.516,2.068v1.748h5.134v2.729h-5.134v5.225c0,1.203,0.207,2.063,0.648,2.582
			c0.444,0.54,1.18,0.787,2.245,0.787h3.229v2.286L120.412,269.964L120.412,269.964z"/>
		<path fill="#E30613" d="M134.951,269.964v-16.046c0-0.617-0.18-1.058-0.52-1.381c-0.343-0.297-0.861-0.442-1.592-0.442h-0.779
			v17.869h-4.332v-20.28h3.441l0.471,0.882c0.392-0.295,0.861-0.541,1.435-0.662c0.573-0.149,1.171-0.22,1.853-0.22
			c1.355,0,2.424,0.341,3.203,1.085c0.758,0.711,1.145,1.716,1.145,2.979v16.218L134.951,269.964L134.951,269.964z"/>
		<path fill="#E30613" d="M149.098,251.972v17.991h-4.324v-17.991h-4.039v-2.289h12.434v2.289H149.098L149.098,251.972z"/>
		<path fill="#E30613" d="M156.264,257.489h-1.883l1.281-3.57h-1.07v-4.234h4.354v4.234L156.264,257.489z"/>
		<path fill="#E30613" d="M170.723,268.83c-1.017,0.96-2.496,1.45-4.48,1.45c-1.775,0-3.161-0.438-4.146-1.301
			c-1.018-0.859-1.51-2.12-1.51-3.738h4.042c0,0.664,0.132,1.182,0.415,1.549c0.285,0.37,0.729,0.539,1.307,0.539
			c0.57,0,1.037-0.169,1.353-0.488c0.34-0.317,0.495-0.764,0.495-1.355c0-0.59-0.125-1.131-0.364-1.62
			c-0.257-0.471-0.651-0.966-1.146-1.482c-0.291-0.271-0.914-0.81-1.899-1.647c-1.019-0.86-1.591-1.354-1.777-1.499
			c-0.78-0.716-1.351-1.478-1.721-2.24c-0.364-0.762-0.547-1.604-0.547-2.484c0-1.523,0.521-2.762,1.538-3.673
			c1.043-0.907,2.375-1.378,4.014-1.378c1.643,0,2.945,0.445,3.881,1.33c0.941,0.887,1.438,2.12,1.438,3.672h-4.062
			c0-0.664-0.134-1.186-0.365-1.526c-0.262-0.35-0.654-0.521-1.17-0.521c-0.443,0-0.785,0.126-1.017,0.396
			c-0.235,0.272-0.342,0.67-0.342,1.135c0,0.366,0.104,0.736,0.312,1.104c0.238,0.342,0.653,0.788,1.276,1.332
			c0.079,0.073,0.647,0.514,1.67,1.354c1.037,0.827,1.796,1.474,2.209,1.913c0.782,0.768,1.332,1.53,1.644,2.312
			c0.338,0.768,0.496,1.629,0.496,2.586C172.258,266.441,171.734,267.876,170.723,268.83z"/>
	</g>
	<g>
		<path fill="#E30613" d="M43.51,278.812c0-0.994-0.084-1.722-0.218-2.16c-0.163-0.438-0.517-0.658-1.062-0.658
			c-0.57,0-0.946,0.486-1.189,1.434c-0.244,0.977-0.352,2.917-0.352,5.837c0,2.913,0.131,4.937,0.404,6.027
			c0.271,1.089,0.789,1.625,1.523,1.625c0.401,0,0.699-0.072,0.893-0.244c0.22-0.169,0.351-0.653,0.455-1.429h4.075
			c-0.107,0.464-0.215,0.847-0.354,1.215c-0.139,0.364-0.271,0.679-0.437,0.948c-0.402,0.774-1.005,1.355-1.708,1.744
			c-0.702,0.365-1.707,0.559-3.01,0.559c-1.464,0-2.63-0.315-3.525-0.945c-0.917-0.631-1.601-1.604-2.088-2.938
			c-0.301-0.809-0.518-1.753-0.654-2.848c-0.158-1.092-0.217-2.355-0.217-3.741c0-1.82,0.139-3.402,0.41-4.71
			c0.271-1.313,0.678-2.385,1.222-3.161c0.515-0.731,1.19-1.292,1.979-1.65c0.815-0.373,1.761-0.567,2.874-0.567
			c0.979,0,1.847,0.12,2.555,0.395c0.727,0.267,1.324,0.685,1.785,1.193c0.432,0.484,0.756,1.062,0.954,1.746
			c0.215,0.683,0.321,1.46,0.321,2.332L43.51,278.812L43.51,278.812z"/>
		<path fill="#E30613" d="M59.443,293.393V282.7h-3.442v10.691h-4.509v-20.023h4.509v6.538h3.442v-6.538h4.5v20.023L59.443,293.393
			L59.443,293.393z"/>
		<path fill="#E30613" d="M77.015,293.393v-10.767h-3.581v10.767h-4.501v-14.774c0-1.771,0.542-3.135,1.601-4.057
			c1.083-0.945,2.653-1.415,4.693-1.415c2.19,0,3.791,0.44,4.799,1.32c1.002,0.868,1.49,2.258,1.49,4.149v14.774L77.015,293.393
			L77.015,293.393z M77.015,277.794c0-0.831-0.14-1.435-0.41-1.773c-0.273-0.344-0.702-0.513-1.351-0.513
			c-0.708,0-1.169,0.169-1.439,0.513c-0.242,0.341-0.381,0.925-0.381,1.773v2.186h3.581V277.794z"/>
		<path fill="#E30613" d="M91.908,293.393c-1.731,0-3.069-0.412-3.959-1.261c-0.922-0.827-1.383-2.021-1.383-3.546v-15.219h4.508
			v15.07c0,1.092,0.218,1.821,0.649,2.16c0.455,0.366,1.08,0.535,1.868,0.535h3.957v2.258L91.908,293.393L91.908,293.393z"/>
		<path fill="#E30613" d="M104.559,293.393c-1.732,0-3.059-0.412-3.957-1.261c-0.922-0.827-1.381-2.021-1.381-3.546v-15.219h4.498
			v15.07c0,1.092,0.221,1.821,0.649,2.16c0.464,0.366,1.085,0.535,1.874,0.535h3.959v2.258L104.559,293.393L104.559,293.393z"/>
		<path fill="#E30613" d="M119.227,293.393c-1.898,0-3.305-0.412-4.285-1.261c-0.953-0.853-1.438-2.139-1.438-3.867v-9.738
			c0-2.046,0.41-3.429,1.249-4.111c0.842-0.699,2.391-1.046,4.637-1.046h4.426v2.26h-3.23c-0.982,0-1.656,0.196-2.029,0.562
			c-0.359,0.393-0.549,1.066-0.549,2.043v1.725h5.346v2.696h-5.346v5.154c0,1.189,0.223,2.043,0.678,2.553
			c0.461,0.532,1.224,0.776,2.332,0.776h3.367v2.257L119.227,293.393L119.227,293.393z"/>
		<path fill="#E30613" d="M135.868,293.393v-15.841c0-0.607-0.19-1.045-0.536-1.363c-0.354-0.292-0.896-0.438-1.656-0.438h-0.812
			v17.642h-4.506v-20.023h3.582l0.486,0.877c0.402-0.295,0.893-0.53,1.488-0.657c0.595-0.146,1.225-0.22,1.928-0.22
			c1.409,0,2.521,0.347,3.334,1.071c0.788,0.703,1.198,1.702,1.198,2.94v16.012H135.868L135.868,293.393z"/>
		<path fill="#E30613" d="M154.507,292.664c-0.894,0.705-2.2,1.045-3.909,1.045c-2.354,0-4.062-0.776-5.068-2.332
			c-1-1.552-1.518-4.203-1.518-7.97c0-3.598,0.518-6.194,1.518-7.827c1.007-1.607,2.656-2.435,4.938-2.435
			c1.808,0,3.201,0.486,4.12,1.415c0.954,0.945,1.439,2.286,1.439,4.057h-4.344c0-1.138-0.082-1.868-0.297-2.186
			c-0.188-0.29-0.519-0.461-0.947-0.461c-0.76,0-1.25,0.535-1.465,1.58c-0.216,1.044-0.328,3.012-0.328,5.854
			c0,3.089,0.141,5.126,0.438,6.148c0.264,0.996,0.788,1.504,1.544,1.504c0.571,0,0.999-0.218,1.304-0.682
			c0.299-0.433,0.43-1.021,0.43-1.748v-3.592h-1.951v-2.8h6.05v7.003C156.083,290.823,155.43,291.959,154.507,292.664z"/>
		<path fill="#E30613" d="M166.551,293.393c-1.893,0-3.303-0.412-4.277-1.261c-0.948-0.853-1.441-2.139-1.441-3.867v-9.738
			c0-2.046,0.41-3.429,1.249-4.111c0.842-0.699,2.386-1.046,4.642-1.046h4.426v2.26h-3.229c-0.979,0-1.653,0.196-2.034,0.562
			c-0.354,0.393-0.545,1.066-0.545,2.043v1.725h5.344v2.696h-5.344v5.154c0,1.189,0.215,2.043,0.68,2.553
			c0.463,0.532,1.222,0.776,2.334,0.776h3.355v2.257L166.551,293.393L166.551,293.393z"/>
	</g>
</g>
<rect x="37.218" y="105.255" width="133.45" height="0.725"/>
</svg>
